P3
8 5
255
185 99 0 202 109 0 214 115 0 103 126 132 9 75 132 13 2 6 48 7 22 78 12 36 165 89 0 181 97 0 193 104 0 137 87 26 1 15 26 1 0 0 23 3 10 53 8 24 143 77 0 157 84 0 167 90 0 118 63 0 0 0 0 0 0 0 3 0 1 27 4 12 116 62 0 128 69 0 135 73 0 68 50 26 1 15 26 0 0 0 0 0 0 5 0 2 85 46 0 94 50 0 95 51 0 16 36 14 2 29 14 0 0 0 0 0 0 0 0 0 