P3
8 5
255
183 98 0 204 109 0 220 118 0 16 135 238 16 135 238 32 4 14 72 10 33 106 15 49 
162 86 0 181 97 0 197 105 0 201 108 0 2 0 1 3 0 1 40 6 18 73 10 33 
134 72 0 152 81 0 165 88 0 168 90 0 2 0 1 2 0 1 9 1 4 41 6 19 
102 55 0 117 62 0 126 67 0 2 1 0 2 0 1 2 0 1 2 0 1 8 1 4 
62 33 0 73 39 0 73 39 0 0 2 1 0 2 1 2 0 1 2 0 1 2 0 1 
